# AST/ASF file generated using VICON BodyLanguage
# -----------------------------------------------
:version 1.10
:name VICON
:units
  mass 1.0
  length 0.45
  angle deg
:documentation
   .ast/.asf automatically generated from VICON data using
   VICON BodyBuilder and BodyLanguage model FoxedUp or BRILLIANT.MOD
:root
   order TX TY TZ RX RY RZ
   axis XYZ
   position 0 0 0  
   orientation 0 0 0 
:bonedata
  begin
     id 1 
     name lhipjoint
     direction 0.528046 -0.759594 0.379717 
     length 2.39752 
     axis 0 0 0  XYZ
  end
  begin
     id 2 
     name lfemur
     direction 0.34202 -0.939693 0  
     length 7.31175  
     axis 0 0 20  XYZ
    dof rx ry rz
    limits (-160.0 20.0)
           (-70.0 70.0)
           (-60.0 70.0)
  end
  begin
     id 3 
     name ltibia
     direction 0.34202 -0.939693 0   
     length 7.52482   
     axis 0 0 20   XYZ
    dof rx
    limits (-10.0 170.0)
  end
  begin
     id 4 
     name lfoot
     direction 0.0675379 -0.185559 0.980309   
     length 2.00961   
     axis -90 7.62852e-016 20   XYZ
    dof rx rz
    limits (-45.0 90.0)
           (-70.0 20.0)
  end
  begin
     id 5 
     name ltoes
     direction 1.5352e-011 -4.22286e-011 1   
     length 1.01383   
     axis -90 7.62852e-016 20   XYZ
    dof rx
    limits (-90.0 20.0)
  end
  begin
     id 6 
     name rhipjoint
     direction -0.510274 -0.769251 0.384544   
     length 2.36742  
     axis 0 0 0  XYZ 
  end
  begin
     id 7 
     name rfemur
     direction -0.34202 -0.939693 0   
     length 7.45325   
     axis 0 0 -20   XYZ
    dof rx ry rz
    limits (-160.0 20.0)
           (-70.0 70.0)
           (-70.0 60.0)
  end
  begin
     id 8 
     name rtibia
     direction -0.34202 -0.939693 0   
     length 7.49587   
     axis 0 0 -20   XYZ
    dof rx
    limits (-10.0 170.0)
 end
 begin
     id 9 
     name rfoot
     direction -0.106475 -0.292536 0.950308   
     length 2.20898  
     axis -90 -7.62852e-016 -20   XYZ
    dof rx rz
    limits (-45.0 90.0)
           (-20.0 70.0)
  end
  begin
     id 10 
     name rtoes
     direction -1.53597e-011 -4.22023e-011 1   
     length 1.10065   
     axis -90 -7.62852e-016 -20   XYZ
    dof rx
    limits (-90.0 20.0)
  end
  begin
     id 11 
     name lowerback
     direction 0.0260024 0.998026 -0.0571652   
     length 2.11214   
     axis 0 0 0   XYZ
    dof rx ry rz
    limits (-20.0 45.0)
           (-30.0 30.0)
           (-30.0 30.0)
  end
  begin
     id 12 
     name upperback
     direction 0.0216202 0.999542 -0.0211766   
     length 2.11689   
     axis 0 0 0   XYZ
    dof rx ry rz
    limits (-20.0 45.0)
           (-30.0 30.0)
           (-30.0 30.0)
  end
  begin
     id 13 
     name thorax
     direction 0.00883312 0.999944 0.00589057   
     length 2.11821   
     axis 0 0 0   XYZ
    dof rx ry rz
    limits (-20.0 45.0)
           (-30.0 30.0)
           (-30.0 30.0)
  end
  begin
     id 14 
     name lowerneck
     direction -0.059386 0.994433 0.0870401   
     length 1.81176   
     axis 0 0 0   XYZ
    dof rx ry rz
    limits (-20.0 45.0)
           (-30.0 30.0)
           (-30.0 30.0)
  end
  begin
     id 15 
     name upperneck
     direction 0.0506457 0.97328 -0.223967   
     length 1.82382   
     axis 0 0 0   XYZ
    dof rx ry rz
    limits (-20.0 45.0)
           (-30.0 30.0)
           (-30.0 30.0)
  end
  begin
     id 16
     name head
     direction 0.0205902 0.996147 -0.0852487  
     length 1.84805  
     axis 0 0 0   XYZ
    dof rx ry rz
    limits (-20.0 45.0)
           (-30.0 30.0)
           (-30.0 30.0)
  end
  begin
     id 17 
     name lclavicle
     direction 0.949493 0.303881 -0.0782325  
     length 3.60584  
     axis 0 0 0   XYZ
    dof ry rz
    limits (-20.0 10.0)
           (0.0 20.0)
  end
  begin
     id 18 
     name lhumerus
     direction 1 -4.48965e-011 1.48782e-027   
     length 4.95681   
     axis 180 -30 -90   XYZ
    dof rx ry rz
    limits (-60.0 90.0)
           (-90.0 90.0)
           (-90.0 90.0)
  end
  begin
     id 19
     name lradius
     direction 1 -4.48952e-011 2.06528e-027   
     length 3.40915   
     axis 180 -30 -90   XYZ
    dof rx
    limits (-10.0 170.0)
  end
  begin
     id 20
     name lwrist
     direction 1 -4.48964e-011 1.28021e-027   
     length 1.70457   
     axis -1.61767e-015 90 90   XYZ
    dof ry
    limits (-180.0 0.0)
 end
  begin
     id 21 
     name lhand
     direction 1 -4.49094e-011 2.54887e-027   
     length 0.616403   
     axis -1.63363e-015 90 90   XYZ
    dof rx rz
    limits (-90.0 90.0)
           (-45.0 45.0)
  end
  begin
     id 22 
     name lfingers
     direction 1 -4.49002e-011 5.11407e-027   
     length 0.49696   
     axis -3.26723e-015 90 90   XYZ
    dof rx
    limits (0.0 90.0)
  end
  begin
     id 23
     name lthumb
     direction 0.707107 -6.34998e-011 0.707107   
     length 0.713539   
     axis -90 45 -2.25915e-014   XYZ
    dof rx rz
    limits (-45.0 45.0)
           (-45.0 45.0)
  end
  begin
     id 24 
     name rclavicle
     direction -0.937751 0.334612 -0.0930482   
     length 3.46287  
     axis 0 0 0   XYZ 
    dof ry rz
    limits (-10.0 20.0)
           (-20.0 0.0)
  end
  begin
     id 25 
     name rhumerus
     direction -1 -4.48962e-011 3.59972e-027  
     length 5.352   
     axis 180 30 90   XYZ
    dof rx ry rz
    limits (-90.0 60.0)
           (-90.0 90.0)
           (-90.0 90.0)
  end
  begin
     id 26 
     name rradius
     direction -1 -4.48987e-011 -3.76925e-027   
     length 3.43721   
     axis 180 30 90   XYZ
    dof rx
    limits (-10.0 170.0)
  end
  begin
     id 27 
     name rwrist
     direction -1 -4.48943e-011 1.28112e-027   
     length 1.7186   
     axis -1.61767e-015 -90 -90   XYZ
    dof ry
    limits (-180.0 0.0)
  end
  begin
     id 28
     name rhand
     direction -1 -4.49027e-011 2.55483e-027   
     length 0.72009   
     axis -1.63363e-015 -90 -90   XYZ
    dof rx rz
    limits (-90.0 90.0)
           (-45.0 45.0)
  end
  begin
     id 29
     name rfingers
     direction -1 -4.48827e-011 5.14506e-027   
     length 0.580555   
     axis -3.26723e-015 -90 -90   XYZ
    dof rx
    limits (0.0 90.0)
  end
  begin
     id 30
     name rthumb
     direction -0.707107 -6.34936e-011 0.707107   
     length 0.833564   
     axis -90 -45 2.25915e-014   XYZ
    dof rx rz
    limits (-45.0 45.0)
           (-45.0 45.0)
  end
:hierarchy
  begin
    root lhipjoint rhipjoint lowerback
    lhipjoint lfemur
    lfemur ltibia
    ltibia lfoot
    lfoot ltoes
    rhipjoint rfemur
    rfemur rtibia
    rtibia rfoot
    rfoot rtoes
    lowerback upperback
    upperback thorax
    thorax lowerneck lclavicle rclavicle
    lowerneck upperneck
    upperneck head
    lclavicle lhumerus
    lhumerus lradius
    lradius lwrist
    lwrist lhand lthumb
    lhand lfingers
    rclavicle rhumerus
    rhumerus rradius
    rradius rwrist
    rwrist rhand rthumb
    rhand rfingers
  end

#!OML:ASF H:\Terrain\Patient Classification 1\Terrain2\Thursday\justin.ASF
:FULLY-SPECIFIED
:DEGREES
756
root 16.4798 23.3129 20.9818 0.473797 -74.3609 -3.88637
lowerback 8.2713 2.80753 -0.946984
upperback 3.73653 3.60068 2.0886
thorax -0.957925 1.73737 2.35886
lowerneck -7.68444 -3.85551 -11.3876
upperneck 40.9082 -7.84927 6.79176
head 16.8846 -4.73751 3.67426
rclavicle -8.9801e-014 2.78299e-015
rhumerus -33.5101 -10.4491 -78.0957
rradius 35.7293
rwrist -12.3696
rhand -18.3291 14.4212
rfingers 7.12502
rthumb 7.95271 -15.4092
lclavicle -8.9801e-014 2.78299e-015
lhumerus -40.7856 8.58609 76.9662
lradius 30.5041
lwrist 0.626399
lhand -22.6724 17.3447
lfingers 7.12502
lthumb 3.75947 47.2913
rfemur -34.0433 -10.807 18.2286
rtibia 77.5223
rfoot -17.6371 -4.58442
rtoes -3.25436
lfemur -3.96541 -7.10994 -21.4209
ltibia 39.2715
lfoot -24.7596 -9.39538
ltoes 19.2633
757
root 16.4033 23.2986 20.9926 -0.290959 -74.0556 -3.24015
lowerback 8.15628 2.765 -1.18865
upperback 3.80313 3.52501 2.00075
thorax -0.830846 1.69658 2.41794
lowerneck -7.79969 -3.88313 -11.5797
upperneck 40.994 -7.93348 7.02014
head 17.0019 -4.77536 3.80074
rclavicle -1.09332e-014 1.39149e-014
rhumerus -33.3919 -10.2788 -78.1917
rradius 35.6601
rwrist -12.688
rhand -18.7553 14.0342
rfingers 7.12502
rthumb 7.54133 -15.8114
lclavicle -1.09332e-014 1.39149e-014
lhumerus -40.8073 9.0462 76.5886
lradius 30.2062
lwrist 0.343408
lhand -22.3461 17.1841
lfingers 7.12502
lthumb 4.07453 47.1249
rfemur -34.7175 -11.3247 17.9856
rtibia 77.0896
rfoot -17.4614 -4.60759
rtoes -3.17041
lfemur -3.58997 -7.40552 -21.6171
ltibia 39.4478
lfoot -24.7764 -9.6636
ltoes 19.414
758
root 16.3318 23.275 21.0004 -0.741907 -73.6569 -2.8715
lowerback 8.0772 2.7185 -1.24825
upperback 3.82539 3.45853 1.87001
thorax -0.756379 1.66342 2.32692
lowerneck -7.74417 -3.93576 -11.2964
upperneck 40.9554 -8.08486 7.01887
head 16.9693 -4.79442 3.72284
rclavicle 5.17834e-014 1.07344e-014
rhumerus -33.3521 -10.55 -78.2059
rradius 35.5911
rwrist -12.7308
rhand -18.9224 13.618
rfingers 7.12502
rthumb 7.38009 -16.2333
lclavicle 5.17834e-014 1.07344e-014
lhumerus -40.7796 8.88614 76.4595
lradius 29.984
lwrist 0.447741
lhand -22.4546 17.2895
lfingers 7.12502
lthumb 3.96976 47.2323
rfemur -35.4462 -11.9623 17.8194
rtibia 76.5226
rfoot -17.1654 -4.33635
rtoes -0.0474249
lfemur -3.34457 -7.44369 -21.6882
ltibia 39.6234
lfoot -24.9986 -9.73138
ltoes 17.9872
759
root 16.259 23.2504 21.0058 -0.403961 -73.2681 -3.38392
lowerback 8.14063 2.74224 -1.04251
upperback 3.81657 3.50419 1.81565
thorax -0.78737 1.68912 2.14849
lowerneck -7.62667 -4.04794 -10.8593
upperneck 40.8499 -8.26855 6.80604
head 16.8644 -4.82515 3.51394
rclavicle 4.99446e-014 1.86858e-014
rhumerus -33.426 -10.7979 -78.1044
rradius 35.5695
rwrist -13.1471
rhand -19.1414 13.5621
rfingers 7.12502
rthumb 7.16865 -16.2965
lclavicle 4.99446e-014 1.86858e-014
lhumerus -40.7459 8.46318 76.4516
lradius 29.838
lwrist 0.49629
lhand -22.6184 17.6969
lfingers 7.12502
lthumb 3.81165 47.6426
rfemur -36.0573 -12.2784 17.961
rtibia 75.7721
rfoot -16.6284 -4.36032
rtoes 2.64059
lfemur -3.01424 -7.53381 -21.4886
ltibia 39.7809
lfoot -25.3222 -9.80424
ltoes 16.8352
760
root 16.1786 23.231 21.011 0.0641709 -72.7787 -4.05888
lowerback 8.11883 2.63877 -0.945661
upperback 3.85938 3.37299 1.87537
thorax -0.7232 1.62287 2.17009
lowerneck -7.66426 -4.0205 -11.1684
upperneck 40.8878 -8.29861 7.17258
head 16.9441 -4.84238 3.73437
rclavicle 2.90226e-014 -1.59028e-014
rhumerus -33.3941 -10.5986 -78.0808
rradius 35.574
rwrist -13.509
rhand -19.1925 13.6078
rfingers 7.12502
rthumb 7.11936 -16.2524
lclavicle 2.90226e-014 -1.59028e-014
lhumerus -40.7198 8.76983 76.2014
lradius 29.558
lwrist 0.173496
lhand -22.5124 17.8026
lfingers 7.12502
lthumb 3.91397 47.7464
rfemur -36.4893 -12.515 18.1594
rtibia 74.826
rfoot -15.9315 -4.59073
rtoes 0.109114
lfemur -2.62632 -7.87734 -21.2014
ltibia 39.9467
lfoot -25.3142 -10.5724
ltoes 19.2497
761
root 16.0966 23.2074 21.0157 -0.219892 -72.2529 -4.08236
lowerback 8.13976 2.39841 -1.25783
upperback 3.90953 3.03089 2.00959
thorax -0.69003 1.44619 2.5149
lowerneck -7.46341 -3.85294 -11.1045
upperneck 40.8634 -7.99236 6.95982
head 16.8151 -4.73874 3.67947
rclavicle -2.32081e-014 8.74653e-015
rhumerus -33.3582 -10.1198 -78.0814
rradius 35.5059
rwrist -13.4954
rhand -19.1176 13.6244
rfingers 7.12502
rthumb 7.19162 -16.2334
lclavicle -2.32081e-014 8.74653e-015
lhumerus -40.9758 9.41831 75.9523
lradius 29.3603
lwrist 0.0603163
lhand -22.6319 18.1021
lfingers 7.12502
lthumb 3.79854 48.048
rfemur -36.7153 -12.9615 18.0958
rtibia 73.7165
rfoot -15.0177 -4.51247
rtoes -1.90461
lfemur -2.09647 -8.20587 -21.1549
ltibia 40.1114
lfoot -25.5026 -11.1533
ltoes 20.7303
762
root 16.0156 23.1777 21.0229 -0.190027 -71.9288 -4.4282
lowerback 8.17671 2.31146 -1.3026
upperback 3.96503 2.91024 2.06627
thorax -0.651521 1.38328 2.60949
lowerneck -7.34439 -3.83882 -10.8843
upperneck 40.8688 -7.9182 6.66371
head 16.7453 -4.71353 3.51824
rclavicle -6.61953e-014 5.56597e-015
rhumerus -33.372 -10.1463 -77.9984
rradius 35.3569
rwrist -13.3583
rhand -19.5703 13.752
rfingers 7.12502
rthumb 6.75467 -16.1202
lclavicle -6.61953e-014 5.56597e-015
lhumerus -41.1375 9.68372 75.7863
lradius 29.2811
lwrist -0.0549443
lhand -22.8985 18.6159
lfingers 7.12502
lthumb 3.54112 48.5663
rfemur -36.9462 -13.2081 18.0913
rtibia 72.4947
rfoot -13.9523 -4.28571
rtoes -1.35745
lfemur -1.52622 -8.46691 -21.0667
ltibia 40.2602
lfoot -25.964 -11.2698
ltoes 20.8066
763
root 15.9303 23.1592 21.0253 0.97909 -71.6988 -5.90316
lowerback 8.18229 2.40991 -0.871245
upperback 4.085 3.0667 2.11149
thorax -0.519767 1.46228 2.40296
lowerneck -7.60635 -4.01618 -11.0344
upperneck 40.9744 -8.27817 7.02388
head 16.957 -4.83613 3.6484
rclavicle -4.02539e-015 -5.96354e-015
rhumerus -33.3261 -10.6327 -77.8737
rradius 35.2389
rwrist -13.1545
rhand -20.0907 13.6847
rfingers 7.12502
rthumb 6.25222 -16.203
lclavicle -4.02539e-015 -5.96354e-015
lhumerus -40.8928 9.63401 75.6296
lradius 29.1677
lwrist -0.382947
lhand -22.7284 18.562
lfingers 7.12502
lthumb 3.70538 48.5096
rfemur -37.2099 -13.0276 18.3856
rtibia 71.2204
rfoot -12.8494 -3.86506
rtoes 1.62719
lfemur -0.997462 -8.60204 -20.5058
ltibia 40.3475
lfoot -26.2954 -11.3745
ltoes 20.7564
764
root 15.8421 23.1502 21.0184 1.77494 -71.4203 -6.94772
lowerback 8.20878 2.54484 -0.745556
upperback 4.14179 3.2531 2.18447
thorax -0.482008 1.55492 2.39163
lowerneck -7.7318 -4.1877 -11.2281
upperneck 41.0308 -8.64319 7.41222
head 17.1172 -4.96662 3.80048
rclavicle 6.1176e-014 -2.76311e-014
rhumerus -33.3906 -10.8366 -77.7742
rradius 35.2531
rwrist -13.391
rhand -20.0831 13.4909
rfingers 7.12502
rthumb 6.2596 -16.3966
lclavicle 6.1176e-014 -2.76311e-014
lhumerus -40.676 9.43483 75.5537
lradius 29.0226
lwrist -0.597343
lhand -22.6066 18.3304
lfingers 7.12502
lthumb 3.82301 48.2758
rfemur -37.5365 -12.8392 18.6148
rtibia 69.9541
rfoot -11.4719 -3.66101
rtoes 4.71172
lfemur -0.522622 -8.6239 -19.9606
ltibia 40.4071
lfoot -26.6574 -11.5573
ltoes 19.9006
765
root 15.7559 23.1253 21.0134 1.35922 -71.0807 -6.61694
lowerback 8.13801 2.58886 -1.04538
upperback 4.13802 3.29253 2.18248
thorax -0.465148 1.57166 2.55691
lowerneck -7.65769 -4.22775 -11.4948
upperneck 41.0003 -8.7293 7.63832
head 17.1297 -5.01649 3.94027
rclavicle -3.04389e-014 -1.59028e-015
rhumerus -33.4603 -11.0013 -77.5948
rradius 35.0985
rwrist -13.2779
rhand -19.7211 13.798
rfingers 7.12502
rthumb 6.60907 -16.0789
lclavicle -3.04389e-014 -1.59028e-015
lhumerus -40.6378 9.49168 75.4695
lradius 28.8982
lwrist -0.838974
lhand -23.0554 18.4535
lfingers 7.12502
lthumb 3.38959 48.4063
rfemur -38.0091 -12.9451 18.5404
rtibia 68.6797
rfoot -9.77197 -3.87058
rtoes 4.44849
lfemur -0.217272 -8.62288 -19.9118
ltibia 40.5299
lfoot -27.2132 -11.144
ltoes 15.8929
766
root 15.669 23.0929 21.0154 1.02455 -70.8253 -6.34804
lowerback 8.00095 2.5834 -1.24545
upperback 4.16546 3.27226 2.12111
thorax -0.367619 1.55899 2.61416
lowerneck -7.56437 -4.2157 -10.9694
upperneck 40.9208 -8.71803 7.36304
head 17.0012 -4.96186 3.71866
rclavicle 4.19684e-014 -1.17283e-014
rhumerus -33.4194 -11.2401 -77.5288
rradius 34.8193
rwrist -12.8586
rhand -19.4775 14.305
rfingers 7.12502
rthumb 6.8442 -15.5644
lclavicle 4.19684e-014 -1.17283e-014
lhumerus -40.6206 9.76243 75.2046
lradius 28.8855
lwrist -0.953146
lhand -23.0542 18.4376
lfingers 7.12502
lthumb 3.39076 48.3904
rfemur -38.4024 -12.8954 18.3743
rtibia 67.269
rfoot -8.02003 -3.86062
rtoes 4.98819
lfemur 0.0530827 -8.57018 -19.8847
ltibia 40.7127
lfoot -27.5636 -11.036
ltoes 13.6331
